:FULLY-SPECIFIED
:FORCE-ALL-JOINTS-BE-3DOF
:DEGREES
372
root 9.34234 17.0489 16.1266 6.28033 4.4629 -3.02515
lfemur -33.7612 5.42982 -17.5796
ltibia 57.4413 -0 0
lfoot -14.4113 11.4169 -0.00390544
ltoes -1.50581 0 0
rfemur -12.9623 6.15687 28.9446
rtibia 28.7596 -0 0
rfoot -18.8138 2.4986 0.0283511
rtoes -17.613 0 0
lowerback -5.75806 0.0547804 0.13075
upperback -0.852316 -0.00366893 2.70865
thorax 2.35958 -0.00903326 2.73064
lowerneck -20.136 -6.26284 -12.5902
upperneck 21.6536 -8.13243 12.7099
head 11.4629 -3.23946 5.50422
lclavicle -5.34234e-16 -2.74323e-14 0
lhumerus -46.4318 -18.3484 97.8307
lradius 28.6653 -0 0
lwrist 12.0839 0 0
lhand -13.9049 -21.9613 0.0034245
lfingers 7.12502 -0 0
lthumb 12.2204 7.65436 0.00145938
rclavicle -5.34234e-16 -2.74323e-14 0
rhumerus -34.179 17.4793 -84.4816
rradius 43.4521 -0 0
rwrist -22.0882 0 0
rhand -30.8076 -24.2768 0.000138888
rfingers 7.12502 -0 0
rthumb -4.09728 -54.2169 0.000118737
373
root 9.35508 17.0409 16.2674 6.30926 4.30578 -3.14898
lfemur -33.9982 5.32175 -17.454
ltibia 56.6026 -0 0
lfoot -14.236 11.3842 -0.00570811
ltoes -1.82049 0 0
rfemur -12.1009 6.17377 29.0437
rtibia 28.0221 -0 0
rfoot -18.4568 2.61477 0.0414416
rtoes -17.5621 0 0
lowerback -5.84122 0.139899 0.226419
upperback -0.848501 0.101219 2.7318
thorax 2.40916 0.0438432 2.71517
lowerneck -20.1137 -6.26241 -12.6082
upperneck 21.6516 -8.13147 12.7218
head 11.4592 -3.23992 5.51223
lclavicle -5.34234e-16 -2.74323e-14 0
lhumerus -46.6349 -18.1051 97.7942
lradius 28.6101 -0 0
lwrist 11.9302 0 0
lhand -13.7124 -21.9352 0.00500521
lfingers 7.12502 -0 0
lthumb 12.4057 7.66591 0.002133
rclavicle -5.34234e-16 -2.74323e-14 0
rhumerus -34.0853 17.3832 -84.5387
rradius 43.3094 -0 0
rwrist -21.941 0 0
rhand -30.7685 -24.2716 0.000202991
rfingers 7.12502 -0 0
rthumb -4.05959 -54.2123 0.000173539
374
root 9.36782 17.0329 16.4082 6.33852 4.14873 -3.27286
lfemur -34.2353 5.21421 -17.328
ltibia 55.7638 -0 0
lfoot -14.0607 11.3515 -0.00741074
ltoes -2.13516 0 0
rfemur -11.2395 6.1892 29.143
rtibia 27.2847 -0 0
rfoot -18.0997 2.73103 0.0538079
rtoes -17.5113 0 0
lowerback -5.92425 0.225157 0.321965
upperback -0.844643 0.206105 2.75497
thorax 2.45872 0.0967331 2.69975
lowerneck -20.0915 -6.26197 -12.6261
upperneck 21.6495 -8.13051 12.7338
head 11.4554 -3.24037 5.52024
lclavicle -5.34234e-16 -2.74323e-14 0
lhumerus -46.838 -17.8619 97.7569
lradius 28.5548 -0 0
lwrist 11.7764 0 0
lhand -13.52 -21.9091 0.0064982
lfingers 7.12502 -0 0
lthumb 12.5911 7.67747 0.00276925
rclavicle -5.34234e-16 -2.74323e-14 0
rhumerus -33.9917 17.2872 -84.5959
rradius 43.1667 -0 0
rwrist -21.7938 0 0
rhand -30.7295 -24.2664 0.000263533
rfingers 7.12502 -0 0
rthumb -4.02191 -54.2077 0.000225296
375
root 9.38056 17.025 16.549 6.36812 3.99175 -3.39679
lfemur -34.4727 5.10718 -17.2015
ltibia 54.925 -0 0
lfoot -13.8854 11.3188 -0.00901329
ltoes -2.44984 0 0
rfemur -10.3781 6.20313 29.2426
rtibia 26.5473 -0 0
rfoot -17.7427 2.84735 0.0654496
rtoes -17.4604 0 0
lowerback -6.00713 0.310553 0.417387
upperback -0.840742 0.31099 2.77814
thorax 2.50827 0.149636 2.68437
lowerneck -20.0692 -6.26152 -12.6441
upperneck 21.6475 -8.12955 12.7457
head 11.4516 -3.24083 5.52825
lclavicle -5.34234e-16 -2.74323e-14 0
lhumerus -47.0409 -17.6189 97.7188
lradius 28.4996 -0 0
lwrist 11.6227 0 0
lhand -13.3275 -21.8829 0.00790346
lfingers 7.12502 -0 0
lthumb 12.7764 7.68903 0.0033681
rclavicle -5.34234e-16 -2.74323e-14 0
rhumerus -33.8979 17.1913 -84.6532
rradius 43.024 -0 0
rwrist -21.6466 0 0
rhand -30.6905 -24.2612 0.000320513
rfingers 7.12502 -0 0
rthumb -3.98423 -54.2031 0.00027401
376
root 9.3933 17.017 16.6898 6.39805 3.83482 -3.52079
lfemur -34.7103 5.00068 -17.0747
ltibia 54.0862 -0 0
lfoot -13.7101 11.2861 -0.0105158
ltoes -2.76451 0 0
rfemur -9.51661 6.21558 29.3424
rtibia 25.8099 -0 0
rfoot -17.3856 2.96375 0.076366
rtoes -17.4096 0 0
lowerback -6.08987 0.396087 0.512687
upperback -0.836799 0.415873 2.80132
thorax 2.5578 0.202553 2.66904
lowerneck -20.047 -6.26107 -12.662
upperneck 21.6454 -8.12858 12.7577
head 11.4478 -3.24129 5.53625
lclavicle -5.34234e-16 -2.74323e-14 0
lhumerus -47.2437 -17.376 97.6797
lradius 28.4443 -0 0
lwrist 11.469 0 0
lhand -13.1351 -21.8568 0.00922097
lfingers 7.12502 -0 0
lthumb 12.9617 7.70059 0.00392955
rclavicle -5.34234e-16 -2.74323e-14 0
rhumerus -33.8041 17.0955 -84.7107
rradius 42.8813 -0 0
rwrist -21.4995 0 0
rhand -30.6515 -24.2559 0.000373932
rfingers 7.12502 -0 0
rthumb -3.94655 -54.1984 0.000319678
377
root 9.40604 17.009 16.8306 6.42832 3.67797 -3.64484
lfemur -34.9481 4.8947 -16.9474
ltibia 53.2475 -0 0
lfoot -13.5348 11.2534 -0.0119181
ltoes -3.07918 0 0
rfemur -8.65507 6.22653 29.4423
rtibia 25.0724 -0 0
rfoot -17.0285 3.08022 0.0865569
rtoes -17.3587 0 0
lowerback -6.17247 0.481758 0.607864
upperback -0.832814 0.520754 2.82451
thorax 2.60732 0.255482 2.65375
lowerneck -20.0247 -6.26061 -12.68
upperneck 21.6434 -8.12762 12.7696
head 11.444 -3.24174 5.54426
lclavicle -5.34234e-16 -2.74323e-14 0
lhumerus -47.4464 -17.1332 97.6399
lradius 28.3891 -0 0
lwrist 11.3153 0 0
lhand -12.9426 -21.8307 0.0104507
lfingers 7.12502 -0 0
lthumb 13.1471 7.71215 0.0044536
rclavicle -5.34234e-16 -2.74323e-14 0
rhumerus -33.7103 16.9998 -84.7682
rradius 42.7385 -0 0
rwrist -21.3523 0 0
rhand -30.6125 -24.2507 0.00042379
rfingers 7.12502 -0 0
rthumb -3.90887 -54.1938 0.000362302
378
root 9.41878 17.0011 16.9714 6.45892 3.52117 -3.76896
lfemur -35.186 4.78925 -16.8196
ltibia 52.4087 -0 0
lfoot -13.3595 11.2207 -0.0132204
ltoes -3.39386 0 0
rfemur -7.79351 6.23599 29.5425
rtibia 24.335 -0 0
rfoot -16.6714 3.19674 0.0960216
rtoes -17.3079 0 0
lowerback -6.25493 0.567566 0.702919
upperback -0.828786 0.625634 2.84771
thorax 2.65683 0.308425 2.63851
lowerneck -20.0025 -6.26015 -12.6979
upperneck 21.6413 -8.12666 12.7815
head 11.4403 -3.2422 5.55227
lclavicle -5.34234e-16 -2.74323e-14 0
lhumerus -47.6491 -16.8906 97.5992
lradius 28.3338 -0 0
lwrist 11.1616 0 0
lhand -12.7502 -21.8046 0.0115927
lfingers 7.12502 -0 0
lthumb 13.3324 7.72372 0.00494024
rclavicle -5.34234e-16 -2.74323e-14 0
rhumerus -33.6164 16.9042 -84.826
rradius 42.5958 -0 0
rwrist -21.2051 0 0
rhand -30.5734 -24.2455 0.000470087
rfingers 7.12502 -0 0
rthumb -3.87119 -54.1892 0.000401882
